<svg width="795" height="175" viewBox="0 0 795 175" fill="none" xmlns="http://www.w3.org/2000/svg">
    <path d="M485.181 63.49C492.689 63.49 498.726 65.695 503.289 70.105C507.927 74.445 510.246 80.535 510.246 88.375V122.5H494.787V90.37C494.787 85.82 493.573 82.355 491.144 79.975C488.714 77.525 485.402 76.3 481.206 76.3C477.01 76.3 473.661 77.525 471.158 79.975C468.729 82.355 467.514 85.82 467.514 90.37V122.5H452.056V90.37C452.056 85.82 450.841 82.355 448.412 79.975C445.983 77.525 442.671 76.3 438.475 76.3C434.205 76.3 430.819 77.525 428.316 79.975C425.887 82.355 424.672 85.82 424.672 90.37V122.5H409.214V64.33H424.672V71.365C426.66 68.915 429.2 66.99 432.291 65.59C435.457 64.19 438.916 63.49 442.671 63.49C447.455 63.49 451.725 64.47 455.479 66.43C459.233 68.32 462.14 71.05 464.202 74.62C466.189 71.26 469.06 68.565 472.814 66.535C476.642 64.505 480.764 63.49 485.181 63.49Z" fill="white"/>
    <path d="M357.857 78.46V106.6C357.857 108.56 358.335 109.995 359.292 110.905C360.323 111.745 362.016 112.165 364.371 112.165H371.548V124.555H361.832C348.802 124.555 342.288 118.535 342.288 106.495V78.46H335V66.385H342.288V52H357.857V66.385H371.548V78.46H357.857Z" fill="white"/>
    <path d="M485.181 63.49C492.689 63.49 498.726 65.695 503.289 70.105C507.927 74.445 510.246 80.535 510.246 88.375V122.5H494.787V90.37C494.787 85.82 493.573 82.355 491.144 79.975C488.714 77.525 485.402 76.3 481.206 76.3C477.01 76.3 473.661 77.525 471.158 79.975C468.729 82.355 467.514 85.82 467.514 90.37V122.5H452.056V90.37C452.056 85.82 450.841 82.355 448.412 79.975C445.983 77.525 442.671 76.3 438.475 76.3C434.205 76.3 430.819 77.525 428.316 79.975C425.887 82.355 424.672 85.82 424.672 90.37V122.5H409.214V64.33H424.672V71.365C426.66 68.915 429.2 66.99 432.291 65.59C435.457 64.19 438.916 63.49 442.671 63.49C447.455 63.49 451.725 64.47 455.479 66.43C459.233 68.32 462.14 71.05 464.202 74.62C466.189 71.26 469.06 68.565 472.814 66.535C476.642 64.505 480.764 63.49 485.181 63.49Z" fill="white"/>
    <path d="M309.967 64C317.476 64 323.512 66.205 328.076 70.615C332.713 74.955 335.032 81.045 335.032 88.885V123.01H319.573V90.88C319.573 86.33 318.359 82.865 315.93 80.485C313.5 78.035 310.188 76.81 305.992 76.81C301.796 76.81 298.447 78.035 295.944 80.485C293.515 82.865 292.3 86.33 292.3 90.88V123.01H276.842V90.88C276.842 86.33 275.628 82.865 273.198 80.485C270.769 78.035 267.457 76.81 263.261 76.81C258.991 76.81 255.605 78.035 253.102 80.485C250.673 82.865 249.459 86.33 249.459 90.88V123.01H234V64.84H249.459V71.875C251.446 69.425 253.986 67.5 257.077 66.1C260.243 64.7 263.702 64 267.457 64C272.241 64 276.511 64.98 280.265 66.94C284.019 68.83 286.927 71.56 288.988 75.13C290.975 71.77 293.846 69.075 297.6 67.045C301.428 65.015 305.55 64 309.967 64Z" fill="white"/>
    <path d="M552.076 123.445C546.187 123.445 540.887 122.22 536.176 119.77C531.465 117.25 527.747 113.715 525.024 109.165C522.373 104.615 521.048 99.365 521.048 93.415C521.048 87.465 522.41 82.215 525.134 77.665C527.931 73.115 531.722 69.615 536.507 67.165C541.292 64.645 546.629 63.385 552.518 63.385C558.407 63.385 563.743 64.645 568.528 67.165C573.313 69.615 577.067 73.115 579.791 77.665C582.588 82.215 583.987 87.465 583.987 93.415C583.987 99.365 582.551 104.615 579.68 109.165C576.883 113.715 573.055 117.25 568.197 119.77C563.412 122.22 558.038 123.445 552.076 123.445ZM552.076 110.635C554.873 110.635 557.486 110.005 559.916 108.745C562.418 107.415 564.406 105.455 565.878 102.865C567.35 100.275 568.086 97.125 568.086 93.415C568.086 87.885 566.541 83.65 563.449 80.71C560.431 77.7 556.713 76.195 552.297 76.195C547.88 76.195 544.163 77.7 541.145 80.71C538.2 83.65 536.728 87.885 536.728 93.415C536.728 98.945 538.163 103.215 541.034 106.225C543.979 109.165 547.659 110.635 552.076 110.635Z" fill="white"/>
    <path d="M628.898 64C636.186 64 642.075 66.205 646.565 70.615C651.056 74.955 653.301 81.045 653.301 88.885V123.01H637.842V90.88C637.842 86.26 636.628 82.725 634.198 80.275C631.769 77.755 628.457 76.495 624.261 76.495C619.991 76.495 616.605 77.755 614.102 80.275C611.673 82.725 610.459 86.26 610.459 90.88V123.01H595V64.84H610.459V72.085C612.52 69.565 615.133 67.605 618.298 66.205C621.537 64.735 625.071 64 628.898 64Z" fill="white"/>
    <path d="M725.193 92.155C725.193 94.255 725.046 96.145 724.751 97.825H680.032C680.4 102.025 681.946 105.315 684.669 107.695C687.393 110.075 690.742 111.265 694.718 111.265C700.459 111.265 704.545 108.92 706.974 104.23H723.647C721.88 109.83 718.494 114.45 713.488 118.09C708.483 121.66 702.336 123.445 695.049 123.445C689.16 123.445 683.86 122.22 679.149 119.77C674.511 117.25 670.867 113.715 668.217 109.165C665.641 104.615 664.353 99.365 664.353 93.415C664.353 87.395 665.641 82.11 668.217 77.56C670.794 73.01 674.401 69.51 679.038 67.06C683.676 64.61 689.013 63.385 695.049 63.385C700.864 63.385 706.054 64.575 710.618 66.955C715.255 69.335 718.825 72.73 721.328 77.14C723.905 81.48 725.193 86.485 725.193 92.155ZM709.182 87.955C709.109 84.175 707.673 81.165 704.876 78.925C702.079 76.615 698.656 75.46 694.607 75.46C690.779 75.46 687.54 76.58 684.89 78.82C682.314 80.99 680.731 84.035 680.142 87.955H709.182Z" fill="white"/>
    <path d="M795 64.33L757.127 150.01H740.674L753.924 121.03L729.412 64.33H746.747L762.537 104.965L778.548 64.33H795Z" fill="white"/>
    <path d="M157.08 25.6279C139.7 9.10136 116.593 0 92.015 0C67.4368 0 44.3296 9.10136 26.9503 25.6279C9.57098 42.1545 0 64.1279 0 87.5C0 110.872 9.57135 132.845 26.9503 149.372C44.3293 165.899 67.4368 175 92.015 175C116.593 175 139.7 165.899 157.08 149.372C174.459 132.846 184.03 110.872 184.03 87.5C184.03 64.1279 174.459 42.1548 157.08 25.6279Z" fill="#33CC95"/>
    <path d="M94.6438 35V145" stroke="white" stroke-width="2" stroke-linecap="round" stroke-linejoin="round"/>
    <path d="M120.934 54.9999H81.4991C76.6181 54.9999 71.9373 56.844 68.4863 60.1257C65.0348 63.4073 63.0961 67.8589 63.0961 72.4999C63.0961 77.1413 65.0348 81.5925 68.4863 84.8746C71.9373 88.1563 76.6181 89.9999 81.4991 89.9999H107.789C112.67 89.9999 117.351 91.844 120.802 95.1257C124.253 98.4078 126.192 102.859 126.192 107.5C126.192 112.141 124.253 116.592 120.802 119.875C117.351 123.156 112.67 125 107.789 125H63.0961" stroke="white" stroke-width="2" stroke-linecap="round" stroke-linejoin="round"/>
    </svg>
    